<svg width="124" height="124" viewBox="0 0 124 124" fill="none" xmlns="http://www.w3.org/2000/svg">
<path fill-rule="evenodd" clip-rule="evenodd" d="M48.1004 32.6646C51.7189 29.0461 56.6267 27.0132 61.7441 27.0132C66.8615 27.0132 71.7693 29.0461 75.3878 32.6646C79.0063 36.2831 81.0392 41.1909 81.0392 46.3083C81.0392 51.4257 79.0063 56.3334 75.3878 59.952C75.102 60.2378 74.8081 60.5138 74.5067 60.7796C77.5056 62.2135 80.2692 64.1556 82.6644 66.5508C88.2129 72.0992 91.3299 79.6245 91.3299 87.4712V92.6165C91.3299 94.7478 89.6022 96.4755 87.4709 96.4755C85.3396 96.4755 83.6119 94.7478 83.6119 92.6165V87.4712C83.6119 81.6715 81.308 76.1093 77.207 72.0083C73.106 67.9073 67.5438 65.6034 61.7441 65.6034C55.9444 65.6034 50.3823 67.9073 46.2813 72.0083C42.1803 76.1093 39.8763 81.6715 39.8763 87.4712V92.6165C39.8763 94.7478 38.1486 96.4755 36.0173 96.4755C33.886 96.4755 32.1583 94.7478 32.1583 92.6165V87.4712C32.1583 79.6245 35.2754 72.0992 40.8238 66.5508C43.219 64.1556 45.9827 62.2135 48.9816 60.7796C48.6802 60.5138 48.3863 60.2378 48.1004 59.952C44.4819 56.3334 42.449 51.4257 42.449 46.3083C42.449 41.1909 44.4819 36.2831 48.1004 32.6646ZM61.7441 34.7312C58.6737 34.7312 55.729 35.9509 53.5579 38.1221C51.3868 40.2932 50.1671 43.2379 50.1671 46.3083C50.1671 49.3787 51.3868 52.3234 53.5579 54.4945C55.729 56.6656 58.6737 57.8853 61.7441 57.8853C64.8145 57.8853 67.7592 56.6656 69.9303 54.4945C72.1014 52.3234 73.3212 49.3787 73.3212 46.3083C73.3212 43.2379 72.1014 40.2932 69.9303 38.1221C67.7592 35.9509 64.8145 34.7312 61.7441 34.7312ZM10.5759 51.739C13.2294 49.0854 16.8285 47.5946 20.5812 47.5946C24.334 47.5946 27.933 49.0854 30.5866 51.739C33.2402 54.3926 34.731 57.9916 34.731 61.7444C34.731 65.4971 33.2402 69.0961 30.5866 71.7497C27.933 74.4033 24.334 75.8941 20.5812 75.8941C17.5108 75.8941 14.5661 77.1138 12.395 79.2849C10.2239 81.4561 9.00417 84.4007 9.00417 87.4712V92.6165C9.00417 94.7478 7.27643 96.4755 5.14515 96.4755C3.01387 96.4755 1.28613 94.7478 1.28613 92.6165V87.4712C1.28613 82.3538 3.319 77.446 6.93754 73.8275C7.9096 72.8554 8.9747 71.9978 10.1119 71.2632C7.74914 68.6647 6.43149 65.2725 6.43149 61.7444C6.43149 57.9916 7.92226 54.3926 10.5759 51.739ZM20.5812 55.3127C18.8754 55.3127 17.2395 55.9903 16.0333 57.1965C14.8272 58.4026 14.1495 60.0386 14.1495 61.7444C14.1495 63.4502 14.8272 65.0861 16.0333 66.2923C17.2395 67.4984 18.8754 68.1761 20.5812 68.1761C22.287 68.1761 23.923 67.4984 25.1291 66.2923C26.3353 65.0861 27.0129 63.4502 27.0129 61.7444C27.0129 60.0386 26.3353 58.4026 25.1291 57.1965C23.923 55.9903 22.287 55.3127 20.5812 55.3127ZM92.9016 51.739C95.5552 49.0854 99.1543 47.5946 102.907 47.5946C106.66 47.5946 110.259 49.0854 112.912 51.739C115.566 54.3926 117.057 57.9916 117.057 61.7444C117.057 65.2725 115.739 68.6647 113.376 71.2632C114.514 71.9978 115.579 72.8554 116.551 73.8275C120.169 77.446 122.202 82.3538 122.202 87.4712V92.6165C122.202 94.7478 120.474 96.4755 118.343 96.4755C116.212 96.4755 114.484 94.7478 114.484 92.6165V87.4712C114.484 84.4007 113.264 81.4561 111.093 79.2849C108.922 77.1138 105.977 75.8941 102.907 75.8941C99.1543 75.8941 95.5552 74.4033 92.9016 71.7497C90.248 69.0961 88.7573 65.4971 88.7573 61.7444C88.7573 57.9916 90.248 54.3926 92.9016 51.739ZM102.907 68.1761C104.613 68.1761 106.249 67.4984 107.455 66.2923C108.661 65.0861 109.339 63.4501 109.339 61.7444C109.339 60.0386 108.661 58.4026 107.455 57.1965C106.249 55.9903 104.613 55.3127 102.907 55.3127C101.201 55.3127 99.5653 55.9903 98.3591 57.1965C97.1529 58.4026 96.4753 60.0386 96.4753 61.7444C96.4753 63.4501 97.1529 65.0861 98.3591 66.2923C99.5653 67.4984 101.201 68.1761 102.907 68.1761Z" fill="white"/>
</svg>
