<svg width="116" height="116" viewBox="0 0 116 116" fill="none" xmlns="http://www.w3.org/2000/svg">
<path d="M72.233 90.2911H97.5145V97.5144H72.233V90.2911ZM79.4563 104.738H90.2912V111.961H79.4563V104.738ZM97.5145 83.0679H90.2912C90.2912 79.095 91.7359 75.8446 94.6252 72.9552L96.431 71.1494C99.3203 68.2601 101.126 63.9261 101.126 59.5922C101.126 50.563 93.9028 43.3397 84.8737 43.3397C75.8446 43.3397 68.6213 50.563 68.6213 59.5922C68.6213 63.9261 70.4271 67.8989 73.3165 71.1494L75.1223 72.9552C78.0116 75.8446 79.4563 79.095 79.4563 83.0679H72.233C72.233 81.262 71.5106 79.4562 70.066 78.0116L68.2602 76.2057C63.9262 71.8717 61.398 65.732 61.398 59.5922C61.398 46.5902 71.8718 36.1165 84.8737 36.1165C97.8756 36.1165 108.349 46.5902 108.349 59.5922C108.349 65.732 105.821 71.8717 101.487 76.2057L99.6815 78.0116C98.2368 79.4562 97.5145 81.262 97.5145 83.0679ZM21.6699 79.4562H50.5631V86.6795H21.6699V79.4562Z" fill="white"/>
<path d="M43.3402 72.2329C45.3348 72.2329 46.9518 70.6159 46.9518 68.6213C46.9518 66.6266 45.3348 65.0096 43.3402 65.0096C41.3455 65.0096 39.7285 66.6266 39.7285 68.6213C39.7285 70.6159 41.3455 72.2329 43.3402 72.2329Z" fill="white"/>
<path d="M21.6699 65.0096H32.5049V72.2329H21.6699V65.0096ZM21.6699 50.563H46.9514V57.7863H21.6699V50.563ZM36.1165 36.1165H61.398V43.3397H36.1165V36.1165Z" fill="white"/>
<path d="M25.2816 43.3397C27.2762 43.3397 28.8932 41.7228 28.8932 39.7281C28.8932 37.7334 27.2762 36.1165 25.2816 36.1165C23.2869 36.1165 21.6699 37.7334 21.6699 39.7281C21.6699 41.7228 23.2869 43.3397 25.2816 43.3397Z" fill="white"/>
<path d="M57.7861 21.6699H72.2327V28.8932H57.7861V21.6699Z" fill="white"/>
<path d="M46.9515 28.8932C48.9461 28.8932 50.5631 27.2762 50.5631 25.2815C50.5631 23.2868 48.9461 21.6699 46.9515 21.6699C44.9568 21.6699 43.3398 23.2868 43.3398 25.2815C43.3398 27.2762 44.9568 28.8932 46.9515 28.8932Z" fill="white"/>
<path d="M21.6699 21.6699H36.1165V28.8932H21.6699V21.6699Z" fill="white"/>
<path d="M65.01 101.126H14.4469V14.4466H79.4566V28.8931H86.6798V14.4466C86.6798 10.4737 83.4294 7.22327 79.4566 7.22327H14.4469C10.4741 7.22327 7.22363 10.4737 7.22363 14.4466V101.126C7.22363 105.099 10.4741 108.349 14.4469 108.349H65.01V101.126Z" fill="white"/>
</svg>
