<svg width="124" height="124" viewBox="0 0 124 124" fill="none" xmlns="http://www.w3.org/2000/svg">
<path d="M100.334 50.1673C104.427 50.1622 108.35 48.5342 111.244 45.6405C114.137 42.7468 115.765 38.8235 115.77 34.7312V23.1541H104.193C100.242 23.16 96.4454 24.6886 93.5925 27.4222C91.5934 23.7948 88.6584 20.7696 85.0932 18.6616C81.528 16.5536 77.4629 15.4397 73.3211 15.4361H61.744V27.0132C61.7512 33.1518 64.1929 39.037 68.5336 43.3777C72.8743 47.7184 78.7595 50.1601 84.8982 50.1673H88.7572V100.335H42.4489V81.0394H46.308C50.4003 81.0343 54.3236 79.4064 57.2173 76.5127C60.111 73.6189 61.7389 69.6957 61.744 65.6034V54.0263H50.167C46.2159 54.0321 42.4191 55.5608 39.5663 58.2944C37.5671 54.667 34.6322 51.6418 31.0669 49.5338C27.5017 47.4257 23.4366 46.3119 19.2948 46.3083H7.71777V57.8853C7.72492 64.024 10.1667 69.9092 14.5074 74.2498C18.848 78.5905 24.7332 81.0323 30.8719 81.0394H34.7309V100.335H7.71777V108.053H115.77V100.335H96.4752V50.1673H100.334ZM96.4752 38.5902C96.4773 36.5439 97.2911 34.582 98.738 33.135C100.185 31.688 102.147 30.8742 104.193 30.8722H108.052V34.7312C108.05 36.7775 107.236 38.7394 105.789 40.1864C104.342 41.6334 102.381 42.4472 100.334 42.4492H96.4752V38.5902ZM42.4489 69.4624C42.451 67.416 43.2648 65.4541 44.7118 64.0071C46.1587 62.5602 48.1207 61.7464 50.167 61.7443H54.026V65.6034C54.024 67.6497 53.2102 69.6116 51.7632 71.0586C50.3162 72.5055 48.3543 73.3193 46.308 73.3214H42.4489V69.4624ZM34.7309 73.3214H30.8719C26.7796 73.3163 22.8563 71.6883 19.9626 68.7946C17.0689 65.9009 15.4409 61.9776 15.4358 57.8853V54.0263H19.2948C23.3872 54.0314 27.3104 55.6593 30.2041 58.5531C33.0979 61.4468 34.7258 65.37 34.7309 69.4624V73.3214ZM88.7572 42.4492H84.8982C80.8058 42.4441 76.8826 40.8162 73.9888 37.9225C71.0951 35.0287 69.4672 31.1055 69.4621 27.0132V23.1541H73.3211C77.4134 23.1592 81.3367 24.7872 84.2304 27.6809C87.1241 30.5746 88.7521 34.4979 88.7572 38.5902V42.4492Z" fill="white"/>
</svg>
