<svg width="32" height="32" viewBox="0 0 32 32" fill="none" xmlns="http://www.w3.org/2000/svg">
<path fill-rule="evenodd" clip-rule="evenodd" d="M2.66602 7.99992C2.66602 6.52716 3.85992 5.33325 5.33268 5.33325H26.666C28.1388 5.33325 29.3327 6.52716 29.3327 7.99992V23.9999C29.3327 25.4727 28.1388 26.6666 26.666 26.6666H5.33268C3.85992 26.6666 2.66602 25.4727 2.66602 23.9999V7.99992ZM26.666 7.99992H5.33268V23.9999H26.666V7.99992Z" fill="#8BDD5C"/>
<path fill-rule="evenodd" clip-rule="evenodd" d="M2.86183 7.97127C3.24582 7.34293 4.06647 7.14484 4.69481 7.52882L15.9995 14.4373L27.3043 7.52882C27.9326 7.14484 28.7533 7.34293 29.1372 7.97127C29.5212 8.59961 29.3231 9.42026 28.6948 9.80424L15.9995 17.5625L3.30427 9.80424C2.67593 9.42026 2.47785 8.59961 2.86183 7.97127Z" fill="#8BDD5C"/>
</svg>
