<svg width="28" height="28" viewBox="0 0 28 28" fill="none" xmlns="http://www.w3.org/2000/svg">
<path d="M2.54545 0C1.15309 0 0 1.15309 0 2.54545V25.4545C0 26.8469 1.15309 28 2.54545 28H25.4545C26.8469 28 28 26.8469 28 25.4545V2.54545C28 1.15309 26.8469 0 25.4545 0H2.54545ZM2.54545 2.54545H25.4545V25.4545H18.8516V16.8636H22.1531L22.6304 13.0455H18.8529V10.5789C18.8529 9.46655 19.1253 8.71055 20.7213 8.71055H22.7895V5.25C22.4369 5.20545 21.2138 5.13036 19.8075 5.13036C16.8738 5.13036 14.8756 6.89564 14.8756 10.1818V13.0455H11.5347V16.8636H14.8744V25.4545H2.54545V2.54545Z" fill="#8BDD5C"/>
</svg>
