<svg width="32" height="32" viewBox="0 0 32 32" fill="none" xmlns="http://www.w3.org/2000/svg">
<path fill-rule="evenodd" clip-rule="evenodd" d="M18.667 4.00008C18.667 3.2637 19.2639 2.66675 20.0003 2.66675C22.4757 2.66675 24.8496 3.65008 26.6 5.40042C28.3503 7.15076 29.3337 9.52473 29.3337 12.0001C29.3337 12.7365 28.7367 13.3334 28.0003 13.3334C27.2639 13.3334 26.667 12.7365 26.667 12.0001C26.667 10.232 25.9646 8.53628 24.7144 7.28604C23.4641 6.03579 21.7684 5.33341 20.0003 5.33341C19.2639 5.33341 18.667 4.73646 18.667 4.00008ZM6.66699 6.66675C6.31337 6.66675 5.97423 6.80722 5.72418 7.05727C5.4822 7.29925 5.34284 7.62467 5.3341 7.9659C5.64075 12.8245 7.70911 17.405 11.1522 20.8482C14.5954 24.2913 19.1759 26.3597 24.0345 26.6663C24.3757 26.6576 24.7012 26.5182 24.9431 26.2762C25.1932 26.0262 25.3337 25.687 25.3337 25.3334V20.9028L20.5594 18.9931L19.1436 21.3527C18.7866 21.9478 18.0329 22.1695 17.4106 21.8626C14.252 20.3048 11.6956 17.7484 10.1378 14.5898C9.83092 13.9675 10.0526 13.2138 10.6477 12.8568L13.0073 11.441L11.0976 6.66675H6.66699ZM3.83856 5.17165C4.58871 4.42151 5.60613 4.00008 6.66699 4.00008H12.0003C12.5455 4.00008 13.0358 4.33202 13.2383 4.83823L15.905 11.5049C16.148 12.1125 15.9142 12.8067 15.353 13.1434L13.121 14.4826C14.2195 16.2741 15.7263 17.7809 17.5178 18.8794L18.857 16.6474C19.1937 16.0863 19.8879 15.8524 20.4955 16.0954L27.1622 18.7621C27.6684 18.9646 28.0003 19.4549 28.0003 20.0001V25.3334C28.0003 26.3943 27.5789 27.4117 26.8288 28.1618C26.0786 28.912 25.0612 29.3334 24.0003 29.3334C23.9733 29.3334 23.9464 29.3326 23.9194 29.331C18.3934 28.9951 13.1813 26.6485 9.26662 22.7338C5.35191 18.8191 3.00527 13.607 2.66945 8.08096C2.66781 8.05403 2.66699 8.02706 2.66699 8.00008C2.66699 6.93922 3.08842 5.9218 3.83856 5.17165ZM18.667 9.33341C18.667 8.59703 19.2639 8.00008 20.0003 8.00008C21.0612 8.00008 22.0786 8.42151 22.8288 9.17165C23.5789 9.9218 24.0003 10.9392 24.0003 12.0001C24.0003 12.7365 23.4034 13.3334 22.667 13.3334C21.9306 13.3334 21.3337 12.7365 21.3337 12.0001C21.3337 11.6465 21.1932 11.3073 20.9431 11.0573C20.6931 10.8072 20.3539 10.6667 20.0003 10.6667C19.2639 10.6667 18.667 10.0698 18.667 9.33341Z" fill="#8BDD5C"/>
</svg>
